HIERARCHY
ROOT Root
{
  OFFSET 0.0 0.0 0.0
  CHANNELS 6 Xposition Yposition Zposition Zrotation Yrotation Xrotation
  JOINT Hips
  {
    OFFSET 0.0 100.0 0.0
    CHANNELS 6 Xposition Yposition Zposition Zrotation Yrotation Xrotation
    JOINT Spine1
    {
      OFFSET -0.013727 5.003763 -0.053727
      CHANNELS 3 Zrotation Yrotation Xrotation
      JOINT Spine2
      {
        OFFSET -0.0 7.125301 -0.029825
        CHANNELS 3 Zrotation Yrotation Xrotation
        JOINT Chest
        {
          OFFSET -1e-06 7.550063 -0.815971
          CHANNELS 3 Zrotation Yrotation Xrotation
          JOINT Neck1
          {
            OFFSET -0.181677 26.311295 -0.553348
            CHANNELS 3 Zrotation Yrotation Xrotation
            JOINT Neck2
            {
              OFFSET -3e-06 7.709397 2.302585
              CHANNELS 3 Zrotation Yrotation Xrotation
              JOINT Head
              {
                OFFSET -5e-06 6.128916 1.953709
                CHANNELS 3 Zrotation Yrotation Xrotation
                JOINT HeadEnd
                {
                  OFFSET 0.003598 16.065403 -1.835379
                  CHANNELS 3 Zrotation Yrotation Xrotation
                }
                JOINT Jaw
                {
                  OFFSET 0.002637 0.475592 3.094941
                  CHANNELS 3 Zrotation Yrotation Xrotation
                }
                JOINT LeftEye
                {
                  OFFSET 3.206381 5.380205 7.586883
                  CHANNELS 3 Zrotation Yrotation Xrotation
                }
                JOINT RightEye
                {
                  OFFSET -3.22244 5.361869 7.558234
                  CHANNELS 3 Zrotation Yrotation Xrotation
                }
              }
            }
          }
          JOINT LeftShoulder
          {
            OFFSET 1.621652 23.237164 5.113413
            CHANNELS 3 Zrotation Yrotation Xrotation
            JOINT LeftArm
            {
              OFFSET 14.919846 2e-06 -5.502326
              CHANNELS 3 Zrotation Yrotation Xrotation
              JOINT LeftForeArm
              {
                OFFSET 28.739307 0.0 -0.002588
                CHANNELS 3 Zrotation Yrotation Xrotation
                JOINT LeftHand
                {
                  OFFSET 27.093981 -1e-06 0.002609
                  CHANNELS 3 Zrotation Yrotation Xrotation
                  JOINT LeftHandThumb1
                  {
                    OFFSET 2.276482 -1.392045 3.191413
                    CHANNELS 3 Zrotation Yrotation Xrotation
                    JOINT LeftHandThumb2
                    {
                      OFFSET 4.012836 -1.828127 1.641654
                      CHANNELS 3 Zrotation Yrotation Xrotation
                      JOINT LeftHandThumb3
                      {
                        OFFSET 2.798515 0.0 -3e-06
                        CHANNELS 3 Zrotation Yrotation Xrotation
                        JOINT LeftHandThumbEnd
                        {
                          OFFSET 3.180793 -4e-06 4e-06
                          CHANNELS 3 Zrotation Yrotation Xrotation
                        }
                      }
                    }
                  }
                  JOINT LeftHandIndex1
                  {
                    OFFSET 3.247555 -0.531998 2.296169
                    CHANNELS 3 Zrotation Yrotation Xrotation
                    JOINT LeftHandIndex2
                    {
                      OFFSET 6.364578 0.01206 0.1786
                      CHANNELS 3 Zrotation Yrotation Xrotation
                      JOINT LeftHandIndex3
                      {
                        OFFSET 3.662364 0.0 0.0
                        CHANNELS 3 Zrotation Yrotation Xrotation
                        JOINT LeftHandIndex4
                        {
                          OFFSET 2.329242 4e-06 4e-06
                          CHANNELS 3 Zrotation Yrotation Xrotation
                          JOINT LeftHandIndexEnd
                          {
                            OFFSET 2.759615 -0.180537 -0.113024
                            CHANNELS 3 Zrotation Yrotation Xrotation
                          }
                        }
                      }
                    }
                  }
                  JOINT LeftHandMiddle1
                  {
                    OFFSET 3.163495 0.240981 1.000332
                    CHANNELS 3 Zrotation Yrotation Xrotation
                    JOINT LeftHandMiddle2
                    {
                      OFFSET 6.19078 -0.259278 -1.002548
                      CHANNELS 3 Zrotation Yrotation Xrotation
                      JOINT LeftHandMiddle3
                      {
                        OFFSET 4.35652 -4e-06 -1e-06
                        CHANNELS 3 Zrotation Yrotation Xrotation
                        JOINT LeftHandMiddle4
                        {
                          OFFSET 2.996877 -8e-06 0.0
                          CHANNELS 3 Zrotation Yrotation Xrotation
                          JOINT LeftHandMiddleEnd
                          {
                            OFFSET 2.304287 -0.294569 -0.031741
                            CHANNELS 3 Zrotation Yrotation Xrotation
                          }
                        }
                      }
                    }
                  }
                  JOINT LeftHandRing1
                  {
                    OFFSET 2.882643 -0.053652 -0.322543
                    CHANNELS 3 Zrotation Yrotation Xrotation
                    JOINT LeftHandRing2
                    {
                      OFFSET 5.854541 -0.486202 -1.373841
                      CHANNELS 3 Zrotation Yrotation Xrotation
                      JOINT LeftHandRing3
                      {
                        OFFSET 4.350578 0.0 3e-06
                        CHANNELS 3 Zrotation Yrotation Xrotation
                        JOINT LeftHandRing4
                        {
                          OFFSET 2.651321 7e-06 2e-06
                          CHANNELS 3 Zrotation Yrotation Xrotation
                          JOINT LeftHandRingEnd
                          {
                            OFFSET 1.936105 0.077687 -7.1e-05
                            CHANNELS 3 Zrotation Yrotation Xrotation
                          }
                        }
                      }
                    }
                  }
                  JOINT LeftHandPinky1
                  {
                    OFFSET 2.8655 -0.310005 -1.600378
                    CHANNELS 3 Zrotation Yrotation Xrotation
                    JOINT LeftHandPinky2
                    {
                      OFFSET 5.087849 -1.331141 -1.77123
                      CHANNELS 3 Zrotation Yrotation Xrotation
                      JOINT LeftHandPinky3
                      {
                        OFFSET 3.070974 4e-06 0.0
                        CHANNELS 3 Zrotation Yrotation Xrotation
                        JOINT LeftHandPinky4
                        {
                          OFFSET 1.549672 0.0 1e-06
                          CHANNELS 3 Zrotation Yrotation Xrotation
                          JOINT LeftHandPinkyEnd
                          {
                            OFFSET 1.944893 -0.157802 0.057219
                            CHANNELS 3 Zrotation Yrotation Xrotation
                          }
                        }
                      }
                    }
                  }
                }
              }
            }
          }
          JOINT RightShoulder
          {
            OFFSET -1.380118 23.180309 5.214158
            CHANNELS 3 Zrotation Yrotation Xrotation
            JOINT RightArm
            {
              OFFSET -15.037196 1.2e-05 -5.545604
              CHANNELS 3 Zrotation Yrotation Xrotation
              JOINT RightForeArm
              {
                OFFSET -28.736639 2e-06 -0.002597
                CHANNELS 3 Zrotation Yrotation Xrotation
                JOINT RightHand
                {
                  OFFSET -27.133619 -0.0 0.002613
                  CHANNELS 3 Zrotation Yrotation Xrotation
                  JOINT RightHandThumb1
                  {
                    OFFSET -2.274032 -1.383988 3.163127
                    CHANNELS 3 Zrotation Yrotation Xrotation
                    JOINT RightHandThumb2
                    {
                      OFFSET -4.011429 -1.827466 1.640914
                      CHANNELS 3 Zrotation Yrotation Xrotation
                      JOINT RightHandThumb3
                      {
                        OFFSET -2.794935 -4e-06 -3e-06
                        CHANNELS 3 Zrotation Yrotation Xrotation
                        JOINT RightHandThumbEnd
                        {
                          OFFSET -3.183852 4e-06 1e-06
                          CHANNELS 3 Zrotation Yrotation Xrotation
                        }
                      }
                    }
                  }
                  JOINT RightHandIndex1
                  {
                    OFFSET -3.253266 -0.520057 2.282866
                    CHANNELS 3 Zrotation Yrotation Xrotation
                    JOINT RightHandIndex2
                    {
                      OFFSET -6.341917 0.012471 0.178266
                      CHANNELS 3 Zrotation Yrotation Xrotation
                      JOINT RightHandIndex3
                      {
                        OFFSET -3.654871 -8e-06 -0.0
                        CHANNELS 3 Zrotation Yrotation Xrotation
                        JOINT RightHandIndex4
                        {
                          OFFSET -2.327586 0.0 1e-06
                          CHANNELS 3 Zrotation Yrotation Xrotation
                          JOINT RightHandIndexEnd
                          {
                            OFFSET -2.76179 -0.180656 -0.113078
                            CHANNELS 3 Zrotation Yrotation Xrotation
                          }
                        }
                      }
                    }
                  }
                  JOINT RightHandMiddle1
                  {
                    OFFSET -3.168106 0.246593 1.00103
                    CHANNELS 3 Zrotation Yrotation Xrotation
                    JOINT RightHandMiddle2
                    {
                      OFFSET -6.180828 -0.258836 -1.000895
                      CHANNELS 3 Zrotation Yrotation Xrotation
                      JOINT RightHandMiddle3
                      {
                        OFFSET -4.348901 0.0 -0.0
                        CHANNELS 3 Zrotation Yrotation Xrotation
                        JOINT RightHandMiddle4
                        {
                          OFFSET -3.00024 -4e-06 -2e-06
                          CHANNELS 3 Zrotation Yrotation Xrotation
                          JOINT RightHandMiddleEnd
                          {
                            OFFSET -2.30252 -0.29437 -0.031706
                            CHANNELS 3 Zrotation Yrotation Xrotation
                          }
                        }
                      }
                    }
                  }
                  JOINT RightHandRing1
                  {
                    OFFSET -2.88569 -0.067952 -0.308858
                    CHANNELS 3 Zrotation Yrotation Xrotation
                    JOINT RightHandRing2
                    {
                      OFFSET -5.854198 -0.48613 -1.373731
                      CHANNELS 3 Zrotation Yrotation Xrotation
                      JOINT RightHandRing3
                      {
                        OFFSET -4.33881 -4e-06 -0.0
                        CHANNELS 3 Zrotation Yrotation Xrotation
                        JOINT RightHandRing4
                        {
                          OFFSET -2.654903 -4e-06 4e-06
                          CHANNELS 3 Zrotation Yrotation Xrotation
                          JOINT RightHandRingEnd
                          {
                            OFFSET -1.933568 0.077527 -5.2e-05
                            CHANNELS 3 Zrotation Yrotation Xrotation
                          }
                        }
                      }
                    }
                  }
                  JOINT RightHandPinky1
                  {
                    OFFSET -2.866425 -0.342796 -1.584145
                    CHANNELS 3 Zrotation Yrotation Xrotation
                    JOINT RightHandPinky2
                    {
                      OFFSET -5.091371 -1.332055 -1.772385
                      CHANNELS 3 Zrotation Yrotation Xrotation
                      JOINT RightHandPinky3
                      {
                        OFFSET -3.062664 -4e-06 1e-06
                        CHANNELS 3 Zrotation Yrotation Xrotation
                        JOINT RightHandPinky4
                        {
                          OFFSET -1.546529 4e-06 -2e-06
                          CHANNELS 3 Zrotation Yrotation Xrotation
                          JOINT RightHandPinkyEnd
                          {
                            OFFSET -1.945119 -0.157718 0.057211
                            CHANNELS 3 Zrotation Yrotation Xrotation
                          }
                        }
                      }
                    }
                  }
                }
              }
            }
          }
        }
      }
    }
    JOINT LeftLeg
    {
      OFFSET 10.043214 -8.434526 2.595655
      CHANNELS 3 Zrotation Yrotation Xrotation
      JOINT LeftShin
      {
        OFFSET -1e-06 -43.221752 -0.802913
        CHANNELS 3 Zrotation Yrotation Xrotation
        JOINT LeftFoot
        {
          OFFSET 1e-06 -42.155094 -3.481523
          CHANNELS 3 Zrotation Yrotation Xrotation
          JOINT LeftToeBase
          {
            OFFSET 0.0 -5.059472 13.231529
            CHANNELS 3 Zrotation Yrotation Xrotation
            JOINT LeftToeEnd
            {
              OFFSET -0.009607 -1.647619 6.513017
              CHANNELS 3 Zrotation Yrotation Xrotation
            }
          }
        }
      }
    }
    JOINT RightLeg
    {
      OFFSET -10.047278 -8.29526 2.620317
      CHANNELS 3 Zrotation Yrotation Xrotation
      JOINT RightShin
      {
        OFFSET 1e-06 -43.362206 -0.805556
        CHANNELS 3 Zrotation Yrotation Xrotation
        JOINT RightFoot
        {
          OFFSET 2e-06 -42.117393 -3.478398
          CHANNELS 3 Zrotation Yrotation Xrotation
          JOINT RightToeBase
          {
            OFFSET -0.0 -5.079609 13.284196
            CHANNELS 3 Zrotation Yrotation Xrotation
            JOINT RightToeEnd
            {
              OFFSET 0.009532 -1.634378 6.460591
              CHANNELS 3 Zrotation Yrotation Xrotation
            }
          }
        }
      }
    }
  }
}
MOTION
Frames: 5
Frame Time: 0.03333333333333333
0.0 0.0 0.0 0.0 -0.0 0.0 -2.955805 99.779312 -2.695035 -1.820865 -0.028101 -4.287333 0.852283 0.23773 1.155768 -0.539253 -1.170001 -5.068505 1.027718 -3.511345 15.366919 7.467458 -1.420773 15.00247 -0.525546 1.459282 -3.514878 -0.554536 1.079993 -8.861921 7.6e-05 -2.3e-05 6e-06 -0.000876 -0.078713 -0.016027 0.653341 -3.800839 -10.58816 -0.650081 3.662095 -10.58061 -10.178678 -8.749551 21.810318 -57.873642 -8.674014 14.355971 0.004836 -35.702244 0.236144 -1.013168 9.106138 -7.691309 -5.882112 9.861292 0.702591 -10.936881 -0.360575 7.156212 1e-06 8.774831 -0.0 -17.062401 17.836042 5.667031 -1.844034 2.498507 -2.507279 -10.16361 4.678948 4.62111 -20.976044 -2e-06 4e-06 -21.226305 2.451699 -3.594001 -0.0 -5e-06 -0.0 -1.362683 2.2408 -0.746324 -21.334934 0.584911 3.008326 -13.821225 -1e-06 2e-06 -23.887192 -0.249076 -0.839483 -60.955429 2.7368 -1.261204 -0.294025 1.679689 0.833256 -14.218223 0.093215 1.300581 -34.212082 -0.287563 0.967173 -20.033232 0.96454 1.212846 -0.0 -0.0 -1e-06 -3.440392 0.788234 0.501655 -15.928203 -3.167311 2.999709 -6.338833 -1e-06 0.0 -18.123465 3.648185 -4.905672 -4e-06 -1e-06 -3e-06 9.812593 9.979112 19.06666 57.456551 12.345901 15.514524 -0.419159 31.608774 -0.219904 -10.825706 -3.974467 -2.813668 2.243543 -5.255038 -3.180158 14.282901 -0.826594 6.952503 -4e-06 -12.69061 1e-06 16.245033 -17.548269 2.565856 1.665668 -1.955922 -2.878299 4.727802 -4.17059 4.993926 11.020535 3e-06 -3e-06 12.10906 -3.735717 -2.866786 -0.0 -0.0 1e-06 1.291987 -1.928549 -1.49809 14.800139 0.567469 3.865608 14.242583 -1.341735 -6.66066 19.631985 0.143928 -0.648245 49.395241 -0.442483 -6.334461 0.353029 -1.51115 -0.031938 20.222803 3.684314 2.316628 18.787287 7e-06 -1e-06 10.751636 -0.479866 1.397907 -0.0 1e-06 1e-06 3.273811 0.305947 -0.580109 21.486832 11.830384 2.266132 8.162933 4e-06 -1e-06 18.399096 -3.798982 -4.940579 3e-06 0.0 -0.0 8.622941 4.823821 -7.452594 -0.12006 -0.193269 64.240173 -9.96479 -2.514565 2.553284 1.88278 -2.018132 -5.047449 -0.0 0.0 2e-06 3.09927 -15.40107 -1.074732 0.025306 -0.301632 12.144231 -0.159249 0.332097 -5.544035 -1.389642 0.843616 -0.111925 -0.0 -0.0 -1e-06 
0.0 0.0 0.0 0.0 -0.0 0.0 -3.017578 99.992104 -1.469276 -1.117019 -0.003149 -4.508875 0.796423 0.32236 1.477151 -0.557604 -0.720764 -4.912589 0.672114 -3.149705 15.204189 6.874738 -0.874569 14.572497 -0.565379 1.025164 -3.500979 -0.588616 0.963075 -9.160235 7.7e-05 -2.3e-05 6e-06 -0.000804 -0.107918 -0.021487 0.674703 -3.828287 -10.59812 -0.672453 3.627901 -10.592606 -10.635263 -8.216863 21.808887 -57.817696 -8.407763 14.04977 -0.150671 -36.879692 0.283499 -0.737669 8.522898 -7.685637 -5.882108 9.861288 0.702592 -10.936878 -0.360577 7.156209 3e-06 8.77483 1e-06 -16.92841 17.852823 5.675405 -1.844033 2.498505 -2.507277 -10.163606 4.678946 4.621112 -20.97604 -7e-06 3e-06 -21.226301 2.451694 -3.593999 1e-06 -5e-06 1e-06 -1.362682 2.240799 -0.746325 -21.334929 0.584906 3.008325 -13.821222 -6e-06 2e-06 -23.887184 -0.249081 -0.839479 -60.897556 2.746827 -1.346894 -0.294024 1.679687 0.833256 -14.218218 0.093211 1.30058 -34.212074 -0.287571 0.967177 -20.033226 0.964535 1.212847 -0.0 1e-06 -0.0 -3.440391 0.788233 0.501657 -15.928201 -3.167314 2.999709 -6.33883 -3e-06 0.0 -18.123459 3.648181 -4.905669 -4e-06 -1e-06 -2e-06 8.838207 10.756299 18.972591 56.921463 14.388443 15.557965 -0.07168 32.636715 -0.045907 -11.660254 -4.014828 -3.397614 2.243544 -5.255041 -3.180163 14.282907 -0.826594 6.952509 -6e-06 -12.690617 1e-06 16.222979 -17.544622 2.624723 1.665668 -1.955922 -2.878303 4.727804 -4.170591 4.993929 11.02054 6e-06 -3e-06 12.109066 -3.735716 -2.866785 -0.0 0.0 -0.0 1.291986 -1.92855 -1.498091 14.800148 0.567471 3.865612 14.242586 -1.341733 -6.660665 19.63199 0.14393 -0.648243 49.461227 -0.453527 -6.286051 0.35303 -1.511152 -0.031941 20.222816 3.684317 2.31663 18.787298 1e-05 -1e-06 10.751641 -0.479866 1.397907 -0.0 0.0 -1e-06 3.273811 0.305947 -0.580113 21.486843 11.83039 2.266134 8.162937 4e-06 0.0 18.399105 -3.798984 -4.940579 3e-06 -0.0 -1e-06 7.5157 5.486013 -10.830935 -0.122416 -0.10604 64.197197 -8.203347 -0.7763 0.63739 1.855288 -2.016036 -4.159656 0.0 -0.0 0.0 2.147997 -15.265584 0.135597 0.025721 -0.31045 12.02539 -0.099172 0.115516 -5.595352 -1.404611 0.838004 0.062474 0.0 -0.0 -1e-06 
0.0 0.0 0.0 0.0 -0.0 0.0 -3.033147 100.118111 0.903611 -0.321029 -0.039793 -4.500167 0.706767 0.413956 1.655537 -0.579124 -0.365223 -4.793046 0.266649 -2.772033 15.107603 6.169991 -0.313885 14.052188 -0.655865 0.659546 -3.534461 -0.712963 0.740478 -9.346128 7.7e-05 -2.2e-05 6e-06 0.000555 -0.126608 -0.022026 0.694358 -3.846006 -10.598633 -0.690785 3.604455 -10.594865 -11.24031 -7.802499 21.84868 -57.570724 -7.932397 13.729856 -0.159045 -38.158562 0.269722 -0.717918 8.184493 -7.934697 -5.882109 9.86129 0.70259 -10.936877 -0.360575 7.156208 0.0 8.774831 -2e-06 -16.814795 17.910934 5.693991 -1.844033 2.498505 -2.507279 -10.163604 4.678947 4.621109 -20.976034 -3e-06 3e-06 -21.226295 2.451698 -3.594001 1e-06 -5e-06 -0.0 -1.362683 2.2408 -0.746323 -21.334925 0.58491 3.008323 -13.82122 -3e-06 0.0 -23.887182 -0.249079 -0.839484 -60.846352 2.736645 -1.407768 -0.294025 1.679688 0.833255 -14.218215 0.093215 1.300581 -34.212067 -0.287565 0.967171 -20.033222 0.964536 1.212844 -0.0 0.0 1e-06 -3.44039 0.788234 0.501656 -15.928192 -3.167312 2.999705 -6.338829 -2e-06 0.0 -18.123457 3.648183 -4.905673 -4e-06 0.0 -2e-06 7.760005 11.595334 18.753273 56.506046 16.096622 15.469168 0.089341 34.576195 -0.002318 -12.358099 -3.709375 -3.732904 2.243543 -5.255039 -3.180161 14.282902 -0.826597 6.952508 -1e-06 -12.69061 -1e-06 16.138958 -17.565212 2.696736 1.665668 -1.955923 -2.878302 4.727802 -4.170588 4.993927 11.020535 3e-06 -3e-06 12.10906 -3.735718 -2.866788 0.0 -0.0 -1e-06 1.291986 -1.92855 -1.498089 14.800138 0.567468 3.86561 14.242581 -1.341738 -6.660661 19.631979 0.143924 -0.648245 49.446533 -0.51426 -6.276264 0.35303 -1.511152 -0.031938 20.222803 3.684313 2.316632 18.787287 5e-06 -1e-06 10.751636 -0.479869 1.397907 -0.0 -0.0 -1e-06 3.273809 0.305949 -0.580111 21.486828 11.830381 2.266136 8.162933 2e-06 -0.0 18.399096 -3.798985 -4.940578 2e-06 -0.0 -1e-06 6.133353 6.557212 -13.88318 -0.099137 -0.035595 61.2449 -6.554662 0.96369 -0.888128 1.821985 -1.986025 -3.711373 0.0 -0.0 4e-06 0.809532 -15.13983 2.08266 0.041045 -0.306215 11.346829 0.409155 0.187801 -6.268488 -1.416624 0.845801 0.197091 -0.0 -0.0 -1e-06 
0.0 0.0 0.0 0.0 -0.0 0.0 -3.0474 100.155762 3.249784 0.350714 -0.095334 -4.292187 0.634137 0.441027 1.709833 -0.585742 -0.046083 -4.73829 -0.107313 -2.467098 15.108689 5.441657 0.234156 13.456918 -0.735044 0.403344 -3.581661 -0.877532 0.549397 -9.462989 7.7e-05 -2.2e-05 6e-06 0.000797 -0.124985 -0.026209 0.707047 -3.844551 -10.593187 -0.704374 3.602693 -10.595151 -11.941633 -7.456446 21.84865 -57.18026 -7.464647 13.475793 -0.024246 -39.00618 0.18333 -0.721093 7.984297 -8.24975 -5.882112 9.861293 0.702592 -10.93688 -0.360573 7.156214 -1e-06 8.774832 -2e-06 -16.698793 17.914143 5.719087 -1.844034 2.498506 -2.507278 -10.163608 4.678949 4.621112 -20.97604 -0.0 4e-06 -21.226301 2.451703 -3.594002 0.0 -6e-06 1e-06 -1.362682 2.240799 -0.746322 -21.33493 0.584913 3.008327 -13.821223 0.0 3e-06 -23.887188 -0.249073 -0.839484 -60.767551 2.679301 -1.389838 -0.294025 1.679688 0.833257 -14.21822 0.093217 1.300582 -34.212074 -0.287558 0.967171 -20.033228 0.964542 1.212844 1e-06 1e-06 -0.0 -3.440392 0.788235 0.501656 -15.928201 -3.167309 2.999711 -6.33883 -0.0 1e-06 -18.123461 3.648189 -4.905674 -3e-06 1e-06 -1e-06 6.886903 12.38397 18.535671 55.951687 17.543238 15.112104 0.194847 37.181934 0.027398 -12.790742 -2.990995 -3.985465 2.243542 -5.255038 -3.180159 14.282896 -0.826596 6.952503 -2e-06 -12.690609 1e-06 16.001305 -17.599731 2.747101 1.665668 -1.955922 -2.878299 4.727799 -4.17059 4.993927 11.020531 3e-06 -1e-06 12.109056 -3.735719 -2.866783 0.0 -0.0 -0.0 1.291987 -1.928551 -1.49809 14.800134 0.567469 3.865609 14.242579 -1.341737 -6.660661 19.631973 0.143926 -0.648245 49.394733 -0.573696 -6.272768 0.35303 -1.511153 -0.031941 20.222801 3.684309 2.316628 18.787283 3e-06 -1e-06 10.751633 -0.479869 1.397908 0.0 -0.0 0.0 3.273809 0.305945 -0.580112 21.486824 11.830381 2.266133 8.16293 2e-06 -1e-06 18.39909 -3.798986 -4.940578 2e-06 -0.0 -1e-06 4.658348 7.839358 -16.400303 -0.034258 0.026305 55.556507 -5.756001 1.776193 -1.431957 1.795119 -1.955087 -3.432824 -0.0 -1e-06 3e-06 -0.183981 -15.001987 3.915942 0.049822 -0.279583 10.43576 0.842228 0.225878 -6.941812 -1.42656 0.847068 0.24453 -0.0 0.0 -1e-06 
0.0 0.0 0.0 0.0 -0.0 0.0 -3.029937 100.114822 5.602674 0.843372 -0.104076 -3.922679 0.603018 0.383405 1.690344 -0.58243 0.239065 -4.746024 -0.402156 -2.220322 15.184885 4.756127 0.697162 12.805792 -0.774706 0.25293 -3.615266 -1.05313 0.330798 -9.566697 7.7e-05 -2.3e-05 6e-06 0.00082 -0.096282 -0.028244 0.708116 -3.815576 -10.578486 -0.706648 3.628061 -10.587935 -12.587093 -7.241702 21.874369 -56.872391 -7.220661 13.158017 0.1953 -39.243328 0.040414 -0.680442 7.974467 -8.491084 -5.882107 9.861288 0.702589 -10.936871 -0.360575 7.156203 0.0 8.774826 -1e-06 -16.641289 17.903391 5.735377 -1.844032 2.498504 -2.507277 -10.163599 4.678945 4.621107 -20.976023 -3e-06 1e-06 -21.226286 2.451698 -3.594001 1e-06 -5e-06 -0.0 -1.362682 2.240798 -0.746323 -21.334913 0.584911 3.008322 -13.821213 -2e-06 1e-06 -23.887167 -0.249078 -0.839486 -60.696892 2.626554 -1.287173 -0.294025 1.679688 0.833255 -14.218208 0.093216 1.300579 -34.212051 -0.287562 0.967167 -20.033215 0.964536 1.21284 -0.0 0.0 -1e-06 -3.440388 0.788234 0.501655 -15.928185 -3.167309 2.999705 -6.338826 -1e-06 0.0 -18.123446 3.648183 -4.905672 -3e-06 -0.0 -3e-06 6.196209 13.082224 18.334341 55.226604 18.853516 14.89715 0.243287 39.936562 0.07769 -12.919617 -2.181218 -4.125501 2.243542 -5.255038 -3.180158 14.282896 -0.826599 6.952505 1e-06 -12.69061 1e-06 15.893347 -17.65494 2.761878 1.665667 -1.955922 -2.878299 4.7278 -4.170591 4.993925 11.020529 1e-06 -2e-06 12.109058 -3.735719 -2.866784 0.0 1e-06 1e-06 1.291987 -1.928551 -1.498089 14.800132 0.567465 3.865608 14.242577 -1.341739 -6.660659 19.631971 0.143925 -0.648248 49.345161 -0.609796 -6.251452 0.35303 -1.511152 -0.03194 20.222797 3.684308 2.316631 18.787281 2e-06 -2e-06 10.751631 -0.479871 1.397904 0.0 2e-06 -0.0 3.27381 0.305945 -0.580111 21.486818 11.830376 2.26613 8.16293 1e-06 -3e-06 18.399092 -3.798988 -4.94058 2e-06 -0.0 -1e-06 3.065725 9.139919 -18.219076 0.051365 0.088485 47.400787 -5.634137 1.953498 -0.705439 1.790955 -1.958594 -3.268992 0.0 0.0 5e-06 -1.052559 -14.872954 5.676661 0.059389 -0.201412 9.318408 1.418037 0.207644 -7.546984 -1.433563 0.843601 0.270184 0.0 -0.0 -1e-06 
